<svg version="1.0" xmlns="http://www.w3.org/2000/svg" width="464" height="464" viewBox="0 0 348 348"><path d="M4 174.5V344h339V5H4v169.5zm337 0V342H6V7h335v167.5z"/><path d="M294.5 25c-4.6 1-7.9 3.5-10.3 7.9-5.6 9.8.4 21.5 11.9 23.6 7.2 1.3 16.8-5.3 18.4-12.6 2.5-11.1-8.5-21.5-20-18.9zm11.4 3.9c9.5 6.7 9 18.7-1 23.9-9.7 5.1-20.9-1.4-20.9-12.1 0-6.7 3.1-10.9 9.7-13.2 4.4-1.5 8.8-1 12.2 1.4zM158.8 99.6c-14.2 4.6-27.6 16.5-34.6 30.7-4.5 9.3-6.2 17.1-6.2 28.2 0 21.3 9 39.1 25.9 51.2 28.7 20.6 68.9 9.7 84.9-23 4.5-9.3 6.2-17.1 6.2-28.2 0-11.1-1.7-18.9-6.2-28.2-7.1-14.4-20.4-26.2-34.9-30.8-11-3.5-24.2-3.4-35.1.1zm32.3 2c18.9 5.6 34.1 21.5 39.4 41.4 1.9 7.1 1.9 23.9 0 31-5.3 19.9-20.5 35.8-39.4 41.4-7.2 2.1-22 2.1-29.2 0-18.9-5.6-34.1-21.5-39.4-41.4-.8-3.1-1.5-9.9-1.5-15.5 0-11.6 1.5-18.1 6.6-28.3 6.3-12.9 18.1-23 32.4-27.9 8.1-2.8 22.8-3.1 31.1-.7zM173 302.5v7.6l6.8-.3 6.7-.3v-14l-6.7-.3-6.8-.3v7.6z"/></svg>